<?xml version="1.0" standalone="no"?>
<!DOCTYPE svg PUBLIC "-//W3C//DTD SVG 20010904//EN"
 "http://www.w3.org/TR/2001/REC-SVG-20010904/DTD/svg10.dtd">
<svg version="1.0" xmlns="http://www.w3.org/2000/svg"
 width="256.000000pt" height="256.000000pt" viewBox="0 0 256.000000 256.000000"
 preserveAspectRatio="xMidYMid meet">

<g transform="translate(0.000000,256.000000) scale(0.100000,-0.100000)"
fill="#285d66" stroke="none">
<path d="M868 1703 c-48 -52 -48 -54 -48 -408 0 -359 1 -364 52 -412 50 -47
84 -53 298 -53 110 0 200 3 200 7 0 4 -67 75 -149 158 -82 82 -154 163 -160
178 -29 77 -4 151 78 232 l51 49 -137 138 c-76 76 -143 138 -148 138 -6 0 -23
-12 -37 -27z"/>
<path d="M1444 1488 c-169 -169 -224 -229 -224 -248 0 -15 16 -40 42 -67 l42
-43 143 142 143 143 0 -105 0 -105 -85 -85 c-47 -47 -85 -89 -85 -95 0 -6 40
-50 89 -99 99 -98 109 -101 171 -50 60 51 60 51 60 422 0 335 0 339 -22 372
-13 19 -29 35 -37 38 -7 2 -108 -90 -237 -220z"/>
</g>
</svg>
